<svg width="409" height="292" viewBox="0 0 409 292" fill="none" xmlns="http://www.w3.org/2000/svg">
<g clip-path="url(#clip0_1_17)">
<path fill-rule="evenodd" clip-rule="evenodd" d="M405.895 74.0346C402.536 70.0603 396.921 67.692 390.894 67.692H326.697L254.636 1.80534C253.36 0.708682 251.667 0.109422 249.916 0.133812C248.164 0.158201 246.491 0.804593 245.252 1.93629C244.012 3.06798 243.302 4.59609 243.273 6.1974C243.244 7.79872 243.897 9.34713 245.095 10.5158L307.627 67.692H101.374L163.894 10.5158C165.157 9.36066 165.866 7.79447 165.866 6.16091C165.866 4.52735 165.157 2.96045 163.894 1.80534C162.63 0.650239 160.916 0.00143433 159.129 0.00143433C157.343 0.00143433 155.634 0.650239 154.371 1.80534L82.3105 67.692H18.0945C12.0682 67.692 6.45315 70.0603 3.09381 74.0346C1.72547 75.6185 0.778437 77.4698 0.320317 79.4442C-0.137804 81.4186 -0.0953596 83.463 0.451791 85.4184L55.9967 280.768C57.8687 287.381 65.1257 292 73.6394 292H335.362C343.863 292 351.12 287.381 353.004 280.768L408.549 85.4184C409.095 83.4621 409.141 81.4172 408.681 79.4428C408.221 77.4683 407.265 75.6175 405.895 74.0346ZM395.496 82.3229L339.951 277.662C339.72 278.483 337.952 279.667 335.362 279.667H73.6394C71.0494 279.667 69.2811 278.483 69.0503 277.674L13.5054 82.3229C13.4797 82.2056 13.4159 81.995 13.762 81.573C14.3775 80.8696 15.876 80.0252 18.107 80.0252H390.894C393.125 80.0252 394.624 80.8461 395.227 81.573C395.586 81.995 395.534 82.2056 395.496 82.3229Z" fill="black"/>
<path d="M405.895 74.0346C402.536 70.0603 396.921 67.692 390.894 67.692H326.697L254.636 1.80534C253.36 0.708682 251.667 0.109422 249.916 0.133812C248.164 0.158201 246.491 0.804593 245.252 1.93629C244.012 3.06798 243.302 4.59609 243.273 6.1974C243.244 7.79872 243.897 9.34713 245.095 10.5158L307.627 67.692H101.374L163.894 10.5158C165.157 9.36066 165.866 7.79447 165.866 6.16091C165.866 4.52735 165.157 2.96045 163.894 1.80534C162.63 0.650239 160.916 0.00143433 159.129 0.00143433C157.343 0.00143433 155.634 0.650239 154.371 1.80534L82.3105 67.692H18.0945C12.0682 67.692 6.45315 70.0603 3.09381 74.0346C1.72547 75.6185 0.778437 77.4698 0.320317 79.4442C-0.137804 81.4186 -0.0953596 83.463 0.451791 85.4184L55.9967 280.768C57.8687 287.381 65.1257 292 73.6394 292H335.362C343.863 292 351.12 287.381 353.004 280.768L408.549 85.4184C409.095 83.4621 409.141 81.4172 408.681 79.4428C408.221 77.4683 407.265 75.6175 405.895 74.0346ZM395.496 82.3229L339.951 277.662C339.72 278.483 337.952 279.667 335.362 279.667H73.6394C71.0494 279.667 69.2811 278.483 69.0503 277.674L13.5054 82.3229C13.4797 82.2056 13.4159 81.995 13.762 81.573C14.3775 80.8696 15.876 80.0252 18.107 80.0252H390.894C393.125 80.0252 394.624 80.8461 395.227 81.573C395.586 81.995 395.534 82.2056 395.496 82.3229Z" fill="black"/>
<path fill-rule="evenodd" clip-rule="evenodd" d="M271.921 118.314C270.132 118.314 268.415 118.964 267.15 120.121C265.886 121.277 265.172 122.846 265.172 124.481V240.51C265.172 242.146 265.886 243.714 267.15 244.871C268.415 246.027 270.132 246.677 271.921 246.677C273.71 246.677 275.421 246.027 276.685 244.871C277.95 243.714 278.664 242.146 278.664 240.51V124.481C278.664 122.846 277.95 121.277 276.685 120.121C275.421 118.964 273.71 118.314 271.921 118.314Z" fill="black"/>
<path d="M271.921 118.314C270.132 118.314 268.415 118.964 267.15 120.121C265.886 121.277 265.172 122.846 265.172 124.481V240.51C265.172 242.146 265.886 243.714 267.15 244.871C268.415 246.027 270.132 246.677 271.921 246.677C273.71 246.677 275.421 246.027 276.685 244.871C277.95 243.714 278.664 242.146 278.664 240.51V124.481C278.664 122.846 277.95 121.277 276.685 120.121C275.421 118.964 273.71 118.314 271.921 118.314Z" fill="black"/>
<path fill-rule="evenodd" clip-rule="evenodd" d="M204.5 118.314C202.711 118.314 200.994 118.964 199.729 120.121C198.464 121.277 197.757 122.846 197.757 124.481V240.51C197.757 242.146 198.464 243.714 199.729 244.871C200.994 246.027 202.711 246.677 204.5 246.677C206.288 246.677 208.005 246.027 209.27 244.871C210.535 243.714 211.242 242.146 211.242 240.51V124.481C211.242 122.846 210.535 121.277 209.27 120.121C208.005 118.964 206.288 118.314 204.5 118.314Z" fill="black"/>
<path d="M204.5 118.314C202.711 118.314 200.994 118.964 199.729 120.121C198.464 121.277 197.757 122.846 197.757 124.481V240.51C197.757 242.146 198.464 243.714 199.729 244.871C200.994 246.027 202.711 246.677 204.5 246.677C206.288 246.677 208.005 246.027 209.27 244.871C210.535 243.714 211.242 242.146 211.242 240.51V124.481C211.242 122.846 210.535 121.277 209.27 120.121C208.005 118.964 206.288 118.314 204.5 118.314Z" fill="black"/>
<path fill-rule="evenodd" clip-rule="evenodd" d="M137.084 118.314C135.296 118.314 133.579 118.964 132.314 120.121C131.049 121.277 130.342 122.846 130.342 124.481V240.51C130.342 242.146 131.049 243.714 132.314 244.871C133.579 246.027 135.296 246.677 137.084 246.677C138.873 246.677 140.59 246.027 141.855 244.871C143.12 243.714 143.827 242.146 143.827 240.51V124.481C143.827 122.846 143.12 121.277 141.855 120.121C140.59 118.964 138.873 118.314 137.084 118.314Z" fill="black"/>
<path d="M137.084 118.314C135.296 118.314 133.579 118.964 132.314 120.121C131.049 121.277 130.342 122.846 130.342 124.481V240.51C130.342 242.146 131.049 243.714 132.314 244.871C133.579 246.027 135.296 246.677 137.084 246.677C138.873 246.677 140.59 246.027 141.855 244.871C143.12 243.714 143.827 242.146 143.827 240.51V124.481C143.827 122.846 143.12 121.277 141.855 120.121C140.59 118.964 138.873 118.314 137.084 118.314Z" fill="black"/>
</g>
<defs>
<clipPath id="clip0_1_17">
<rect width="409" height="292" fill="white"/>
</clipPath>
</defs>
</svg>
