<svg width="561" height="400" viewBox="0 0 561 400" fill="none" xmlns="http://www.w3.org/2000/svg">
<g clip-path="url(#clip0_1_17)">
<path fill-rule="evenodd" clip-rule="evenodd" d="M556.02 101.417C551.419 95.9731 543.727 92.7287 535.472 92.7287H447.53L348.817 2.47306C347.068 0.970786 344.75 0.149882 342.35 0.183292C339.951 0.216702 337.659 1.10217 335.961 2.65244C334.263 4.20271 333.291 6.296 333.251 8.48958C333.211 10.6832 334.106 12.8043 335.747 14.4051L421.407 92.7287H138.869L224.512 14.4051C226.243 12.8228 227.213 10.6773 227.213 8.43959C227.213 6.20183 226.243 4.05539 224.512 2.47306C222.781 0.890727 220.433 0.00195312 217.985 0.00195312C215.538 0.00195313 213.198 0.890727 211.467 2.47306L112.754 92.7287H24.787C16.5317 92.7287 8.83997 95.9731 4.23813 101.417C2.36369 103.587 1.06639 106.123 0.438826 108.828C-0.188736 111.532 -0.130594 114.333 0.618928 117.011L76.7079 384.614C79.2723 393.672 89.2133 400 100.876 400H459.4C471.045 400 480.986 393.672 483.568 384.614L559.657 117.011C560.404 114.332 560.467 111.53 559.837 108.826C559.206 106.121 557.898 103.586 556.02 101.417ZM541.775 112.771L465.686 380.359C465.37 381.483 462.948 383.105 459.4 383.105H100.876C97.3279 383.105 94.9057 381.483 94.5895 380.375L18.5005 112.771C18.4654 112.61 18.3779 112.322 18.8522 111.744C19.6952 110.78 21.7479 109.624 24.8041 109.624H535.472C538.528 109.624 540.581 110.748 541.406 111.744C541.898 112.322 541.828 112.61 541.775 112.771Z" fill="black"/>
<path d="M556.02 101.417C551.419 95.9731 543.727 92.7287 535.472 92.7287H447.53L348.817 2.47306C347.068 0.970786 344.75 0.149882 342.35 0.183292C339.951 0.216702 337.659 1.10217 335.961 2.65244C334.263 4.20271 333.291 6.296 333.251 8.48958C333.211 10.6832 334.106 12.8043 335.747 14.4051L421.407 92.7287H138.869L224.512 14.4051C226.243 12.8228 227.213 10.6773 227.213 8.43959C227.213 6.20183 226.243 4.05539 224.512 2.47306C222.781 0.890727 220.433 0.00195312 217.985 0.00195312C215.538 0.00195313 213.198 0.890727 211.467 2.47306L112.754 92.7287H24.787C16.5317 92.7287 8.83997 95.9731 4.23813 101.417C2.36369 103.587 1.06639 106.123 0.438826 108.828C-0.188736 111.532 -0.130594 114.333 0.618928 117.011L76.7079 384.614C79.2723 393.672 89.2133 400 100.876 400H459.4C471.045 400 480.986 393.672 483.568 384.614L559.657 117.011C560.404 114.332 560.467 111.53 559.837 108.826C559.206 106.121 557.898 103.586 556.02 101.417ZM541.775 112.771L465.686 380.359C465.37 381.483 462.948 383.105 459.4 383.105H100.876C97.3279 383.105 94.9057 381.483 94.5895 380.375L18.5005 112.771C18.4654 112.61 18.3779 112.322 18.8522 111.744C19.6952 110.78 21.7479 109.624 24.8041 109.624H535.472C538.528 109.624 540.581 110.748 541.406 111.744C541.898 112.322 541.828 112.61 541.775 112.771Z" fill="black"/>
<path fill-rule="evenodd" clip-rule="evenodd" d="M372.495 162.075C370.044 162.075 367.692 162.964 365.96 164.549C364.227 166.133 363.249 168.282 363.249 170.522V329.466C363.249 331.706 364.227 333.855 365.96 335.439C367.692 337.023 370.044 337.913 372.495 337.913C374.945 337.913 377.289 337.023 379.021 335.439C380.754 333.855 381.731 331.706 381.731 329.466V170.522C381.731 168.282 380.754 166.133 379.021 164.549C377.289 162.964 374.945 162.075 372.495 162.075Z" fill="black"/>
<path d="M372.495 162.075C370.044 162.075 367.692 162.964 365.96 164.549C364.227 166.133 363.249 168.282 363.249 170.522V329.466C363.249 331.706 364.227 333.855 365.96 335.439C367.692 337.023 370.044 337.913 372.495 337.913C374.945 337.913 377.289 337.023 379.021 335.439C380.754 333.855 381.731 331.706 381.731 329.466V170.522C381.731 168.282 380.754 166.133 379.021 164.549C377.289 162.964 374.945 162.075 372.495 162.075Z" fill="black"/>
<path fill-rule="evenodd" clip-rule="evenodd" d="M280.136 162.075C277.686 162.075 275.334 162.964 273.601 164.549C271.869 166.133 270.9 168.282 270.9 170.522V329.466C270.9 331.706 271.869 333.855 273.601 335.439C275.334 337.023 277.686 337.913 280.136 337.913C282.587 337.913 284.939 337.023 286.672 335.439C288.404 333.855 289.373 331.706 289.373 329.466V170.522C289.373 168.282 288.404 166.133 286.672 164.549C284.939 162.964 282.587 162.075 280.136 162.075Z" fill="black"/>
<path d="M280.136 162.075C277.686 162.075 275.334 162.964 273.601 164.549C271.869 166.133 270.9 168.282 270.9 170.522V329.466C270.9 331.706 271.869 333.855 273.601 335.439C275.334 337.023 277.686 337.913 280.136 337.913C282.587 337.913 284.939 337.023 286.672 335.439C288.404 333.855 289.373 331.706 289.373 329.466V170.522C289.373 168.282 288.404 166.133 286.672 164.549C284.939 162.964 282.587 162.075 280.136 162.075Z" fill="black"/>
<path fill-rule="evenodd" clip-rule="evenodd" d="M187.787 162.075C185.337 162.075 182.984 162.964 181.252 164.549C179.519 166.133 178.55 168.282 178.55 170.522V329.466C178.55 331.706 179.519 333.855 181.252 335.439C182.984 337.023 185.337 337.913 187.787 337.913C190.237 337.913 192.589 337.023 194.322 335.439C196.055 333.855 197.023 331.706 197.023 329.466V170.522C197.023 168.282 196.055 166.133 194.322 164.549C192.589 162.964 190.237 162.075 187.787 162.075Z" fill="black"/>
<path d="M187.787 162.075C185.337 162.075 182.984 162.964 181.252 164.549C179.519 166.133 178.55 168.282 178.55 170.522V329.466C178.55 331.706 179.519 333.855 181.252 335.439C182.984 337.023 185.337 337.913 187.787 337.913C190.237 337.913 192.589 337.023 194.322 335.439C196.055 333.855 197.023 331.706 197.023 329.466V170.522C197.023 168.282 196.055 166.133 194.322 164.549C192.589 162.964 190.237 162.075 187.787 162.075Z" fill="black"/>
</g>
<defs>
<clipPath id="clip0_1_17">
<rect width="560.274" height="400" fill="white"/>
</clipPath>
</defs>
</svg>
