<svg width="400" height="400" viewBox="0 0 400 400" fill="none" xmlns="http://www.w3.org/2000/svg">
<path fill-rule="evenodd" clip-rule="evenodd" d="M162.098 186.295H24.1966C10.8509 186.295 0 175.441 0 162.096V24.2139C0 10.8535 10.8509 0 24.1966 0H162.098C175.443 0 186.294 10.8685 186.294 24.2139V162.096C186.294 175.456 175.443 186.295 162.098 186.295ZM24.1966 17.7739C22.4912 17.7778 20.8565 18.4579 19.652 19.6652C18.4475 20.8725 17.7755 22.5085 17.7755 24.2139V162.096C17.7755 165.639 20.6538 168.521 24.1966 168.521H162.098C163.801 168.517 165.431 167.839 166.635 166.635C167.839 165.431 168.522 163.799 168.526 162.096V24.2139C168.528 23.3689 168.357 22.5316 168.035 21.7503C167.713 20.9691 167.247 20.2591 166.65 19.6609C166.053 19.0627 165.341 18.5881 164.561 18.2643C163.78 17.9405 162.943 17.7739 162.098 17.7739H24.1966Z" fill="black"/>
<path fill-rule="evenodd" clip-rule="evenodd" d="M375.796 186.295H237.895C224.534 186.295 213.684 175.441 213.684 162.096V24.2139C213.684 10.8535 224.549 0 237.895 0H375.781C389.142 0 400 10.8685 400 24.2139V162.096C400 175.456 389.142 186.295 375.796 186.295ZM237.895 17.7739C236.19 17.7778 234.555 18.4579 233.35 19.6652C232.146 20.8725 231.474 22.5085 231.474 24.2139V162.096C231.474 165.639 234.352 168.521 237.895 168.521H375.781C377.487 168.521 379.126 167.844 380.333 166.64C381.541 165.435 382.221 163.801 382.225 162.096V24.2139C382.227 23.3689 382.063 22.5316 381.741 21.7503C381.419 20.9691 380.945 20.2591 380.348 19.6609C379.751 19.0627 379.039 18.5881 378.259 18.2643C377.478 17.9405 376.641 17.7739 375.796 17.7739H237.895Z" fill="black"/>
<path fill-rule="evenodd" clip-rule="evenodd" d="M162.098 400H24.1966C10.8509 400 0 389.132 0 375.786V237.889C0 224.529 10.8509 213.691 24.1966 213.691H162.098C175.443 213.691 186.294 224.544 186.294 237.889V375.786C186.294 389.147 175.443 400 162.098 400ZM24.1966 231.464C22.4938 231.468 20.8634 232.146 19.6593 233.351C18.4552 234.555 17.7794 236.187 17.7755 237.889V375.786C17.7755 379.329 20.6538 382.211 24.1966 382.211H162.098C163.801 382.207 165.431 381.529 166.635 380.325C167.839 379.121 168.522 377.489 168.526 375.786V237.889C168.522 236.187 167.839 234.555 166.635 233.351C165.431 232.146 163.801 231.468 162.098 231.464H24.1966Z" fill="black"/>
<path fill-rule="evenodd" clip-rule="evenodd" d="M375.796 400H237.895C224.534 400 213.684 389.132 213.684 375.786V237.889C213.684 224.529 224.549 213.691 237.895 213.691H375.781C389.142 213.691 400 224.544 400 237.889V375.786C400 389.147 389.142 400 375.796 400ZM237.895 231.464C236.192 231.468 234.562 232.146 233.358 233.351C232.154 234.555 231.478 236.187 231.474 237.889V375.786C231.474 379.329 234.352 382.211 237.895 382.211H375.781C376.626 382.213 377.463 382.049 378.244 381.727C379.026 381.405 379.735 380.932 380.333 380.335C380.932 379.738 381.41 379.029 381.733 378.249C382.057 377.468 382.225 376.631 382.225 375.786V237.889C382.221 236.187 381.537 234.555 380.333 233.351C379.129 232.146 377.499 231.468 375.796 231.464H237.895Z" fill="black"/>
</svg>
