<svg width="409" height="410" viewBox="0 0 409 410" fill="none" xmlns="http://www.w3.org/2000/svg">
<path fill-rule="evenodd" clip-rule="evenodd" d="M165.745 190.491H24.7411C11.0951 190.491 0 179.393 0 165.747V24.7593C0 11.098 11.0951 0 24.7411 0H165.745C179.391 0 190.486 11.1134 190.486 24.7593V165.747C190.486 179.409 179.391 190.491 165.745 190.491ZM24.7411 18.1743C22.9973 18.1783 21.3258 18.8737 20.0942 20.1082C18.8625 21.3427 18.1754 23.0155 18.1754 24.7593V165.747C18.1754 169.37 21.1185 172.317 24.7411 172.317H165.745C167.486 172.313 169.153 171.62 170.384 170.388C171.616 169.157 172.314 167.488 172.318 165.747V24.7593C172.32 23.8953 172.145 23.0392 171.816 22.2403C171.487 21.4415 171.01 20.7154 170.399 20.1038C169.789 19.4921 169.061 19.0068 168.263 18.6757C167.465 18.3446 166.609 18.1743 165.745 18.1743H24.7411Z" fill="black"/>
<path fill-rule="evenodd" clip-rule="evenodd" d="M384.251 190.491H243.248C229.586 190.491 218.492 179.393 218.492 165.747V24.7593C218.492 11.098 229.602 0 243.248 0H384.236C397.898 0 409 11.1134 409 24.7593V165.747C409 179.409 397.897 190.491 384.251 190.491ZM243.248 18.1743C241.504 18.1783 239.832 18.8737 238.601 20.1082C237.369 21.3427 236.682 23.0155 236.682 24.7593V165.747C236.682 169.37 239.625 172.317 243.248 172.317H384.236C385.98 172.317 387.656 171.625 388.891 170.394C390.125 169.162 390.821 167.491 390.825 165.747V24.7593C390.827 23.8953 390.659 23.0392 390.33 22.2403C390.001 21.4415 389.516 20.7154 388.906 20.1038C388.296 19.4921 387.568 19.0068 386.77 18.6757C385.972 18.3446 385.115 18.1743 384.251 18.1743H243.248Z" fill="black"/>
<path fill-rule="evenodd" clip-rule="evenodd" d="M165.745 409.011H24.7411C11.0951 409.011 0 397.898 0 384.252V243.248C0 229.587 11.0951 218.504 24.7411 218.504H165.745C179.391 218.504 190.486 229.602 190.486 243.248V384.252C190.486 397.913 179.391 409.011 165.745 409.011ZM24.7411 236.679C22.9999 236.683 21.3328 237.376 20.1017 238.607C18.8705 239.838 18.1795 241.507 18.1754 243.248V384.252C18.1754 387.874 21.1185 390.821 24.7411 390.821H165.745C167.486 390.817 169.153 390.124 170.384 388.893C171.616 387.661 172.314 385.993 172.318 384.252V243.248C172.314 241.507 171.616 239.838 170.384 238.607C169.153 237.376 167.486 236.683 165.745 236.679H24.7411Z" fill="black"/>
<path fill-rule="evenodd" clip-rule="evenodd" d="M384.251 409.011H243.248C229.586 409.011 218.492 397.898 218.492 384.252V243.248C218.492 229.587 229.602 218.504 243.248 218.504H384.236C397.898 218.504 409 229.602 409 243.248V384.252C409 397.913 397.897 409.011 384.251 409.011ZM243.248 236.679C241.506 236.683 239.839 237.376 238.608 238.607C237.377 239.838 236.686 241.507 236.682 243.248V384.252C236.682 387.874 239.625 390.821 243.248 390.821H384.236C385.1 390.823 385.956 390.655 386.755 390.326C387.554 389.996 388.279 389.513 388.891 388.903C389.503 388.292 389.991 387.567 390.322 386.769C390.654 385.971 390.825 385.116 390.825 384.252V243.248C390.821 241.507 390.122 239.838 388.891 238.607C387.66 237.376 385.993 236.683 384.251 236.679H243.248Z" fill="black"/>
</svg>
