<svg width="413" height="406" viewBox="0 0 413 406" fill="none" xmlns="http://www.w3.org/2000/svg">
<path fill-rule="evenodd" clip-rule="evenodd" d="M355.46 156.565C354.574 156.563 353.695 156.736 352.876 157.074C352.056 157.412 351.312 157.908 350.685 158.534C350.057 159.16 349.561 159.903 349.221 160.722C348.882 161.54 348.705 162.418 348.705 163.304V382.271C348.705 386.758 345.053 390.411 340.581 390.411H264.353V291.81C264.337 279.463 259.427 267.626 250.697 258.896C241.966 250.165 230.127 245.253 217.78 245.238H195.229C182.882 245.253 171.043 250.165 162.312 258.896C153.581 267.626 148.672 279.463 148.656 291.81V390.411H72.4277C70.2689 390.411 68.2036 389.553 66.6771 388.027C65.1506 386.5 64.2895 384.43 64.2895 382.271V163.304C64.2895 161.515 63.5819 159.799 62.3168 158.534C61.0517 157.269 59.3307 156.558 57.5416 156.558C55.7525 156.558 54.0388 157.269 52.7737 158.534C51.5086 159.799 50.801 161.515 50.801 163.304V382.271C50.801 394.198 60.4868 403.888 72.4131 403.888H162.13V291.81C162.13 273.563 176.981 258.714 195.229 258.714H217.78C236.027 258.714 250.879 273.563 250.879 291.81V403.888H340.581C352.507 403.888 362.193 394.198 362.193 382.271V163.304C362.193 161.519 361.488 159.808 360.228 158.544C358.967 157.281 357.244 156.569 355.46 156.565Z" fill="black"/>
<path d="M355.46 156.565C354.574 156.563 353.695 156.736 352.876 157.074C352.056 157.412 351.312 157.908 350.685 158.534C350.057 159.16 349.561 159.903 349.221 160.722C348.882 161.54 348.705 162.418 348.705 163.304V382.271C348.705 386.758 345.053 390.411 340.581 390.411H264.353V291.81C264.337 279.463 259.427 267.626 250.697 258.896C241.966 250.165 230.127 245.253 217.78 245.238H195.229C182.882 245.253 171.043 250.165 162.312 258.896C153.581 267.626 148.672 279.463 148.656 291.81V390.411H72.4277C70.2689 390.411 68.2036 389.553 66.6771 388.027C65.1506 386.5 64.2895 384.43 64.2895 382.271V163.304C64.2895 161.515 63.5819 159.799 62.3168 158.534C61.0517 157.269 59.3307 156.558 57.5416 156.558C55.7525 156.558 54.0388 157.269 52.7737 158.534C51.5086 159.799 50.801 161.515 50.801 163.304V382.271C50.801 394.198 60.4868 403.888 72.4131 403.888H162.13V291.81C162.13 273.563 176.981 258.714 195.229 258.714H217.78C236.027 258.714 250.879 273.563 250.879 291.81V403.888H340.581C352.507 403.888 362.193 394.198 362.193 382.271V163.304C362.193 161.519 361.488 159.808 360.228 158.544C358.967 157.281 357.244 156.569 355.46 156.565Z" fill="black" stroke="black" stroke-width="3.99993" stroke-linecap="round" stroke-linejoin="round"/>
<path fill-rule="evenodd" clip-rule="evenodd" d="M404.252 216.033C403.365 216.034 402.486 215.86 401.668 215.519C400.849 215.179 400.101 214.68 399.477 214.05L206.496 21.0673L13.5158 214.05C12.2506 215.315 10.5299 216.026 8.74059 216.026C6.9513 216.026 5.2379 215.315 3.97268 214.05C2.70745 212.785 2 211.069 2 209.28C2 207.49 2.70746 205.774 3.97268 204.509L206.496 2L409.02 204.524C409.964 205.467 410.608 206.668 410.869 207.977C411.13 209.285 411.001 210.642 410.49 211.875C409.979 213.108 409.111 214.161 408.001 214.901C406.89 215.641 405.586 216.035 404.252 216.033Z" fill="black"/>
<path d="M404.252 216.033C403.365 216.034 402.486 215.86 401.668 215.519C400.849 215.179 400.101 214.68 399.477 214.05L206.496 21.0673L13.5158 214.05C12.2506 215.315 10.5299 216.026 8.74059 216.026C6.9513 216.026 5.2379 215.315 3.97268 214.05C2.70745 212.785 2 211.069 2 209.28C2 207.49 2.70746 205.774 3.97268 204.509L206.496 2L409.02 204.524C409.964 205.467 410.608 206.668 410.869 207.977C411.13 209.285 411.001 210.642 410.49 211.875C409.979 213.108 409.111 214.161 408.001 214.901C406.89 215.641 405.586 216.035 404.252 216.033Z" fill="black" stroke="black" stroke-width="3.99993" stroke-linecap="round" stroke-linejoin="round"/>
</svg>
