<svg width="404" height="404" viewBox="0 0 404 404" fill="none" xmlns="http://www.w3.org/2000/svg">
<path fill-rule="evenodd" clip-rule="evenodd" d="M347.682 155.839C346.815 155.837 345.956 156.009 345.155 156.346C344.353 156.682 343.625 157.175 343.012 157.798C342.398 158.421 341.913 159.161 341.581 159.976C341.249 160.791 341.075 161.664 341.075 162.546V380.485C341.075 384.951 337.505 388.587 333.131 388.587H258.58V290.449C258.564 278.16 253.763 266.379 245.224 257.689C236.686 249 225.107 244.111 213.032 244.095H190.977C178.902 244.111 167.323 249 158.784 257.689C150.246 266.379 145.444 278.16 145.429 290.449V388.587H70.878C68.7667 388.587 66.7468 387.733 65.2539 386.214C63.761 384.694 62.9188 382.634 62.9188 380.485V162.546C62.9188 160.766 62.2268 159.058 60.9896 157.798C59.7523 156.539 58.0692 155.832 56.3194 155.832C54.5697 155.832 52.8937 156.539 51.6564 157.798C50.4192 159.058 49.7272 160.766 49.7272 162.546V380.485C49.7272 392.355 59.1998 402 70.8637 402H158.606V290.449C158.606 272.287 173.131 257.509 190.977 257.509H213.032C230.877 257.509 245.402 272.287 245.402 290.449V402H333.131C344.794 402 354.267 392.355 354.267 380.485V162.546C354.267 160.77 353.578 159.066 352.345 157.809C351.112 156.552 349.427 155.843 347.682 155.839Z" fill="black"/>
<path d="M347.682 155.839C346.815 155.837 345.956 156.009 345.155 156.346C344.353 156.682 343.625 157.175 343.012 157.798C342.398 158.421 341.913 159.161 341.581 159.976C341.249 160.791 341.075 161.664 341.075 162.546V380.485C341.075 384.951 337.505 388.587 333.131 388.587H258.58V290.449C258.564 278.16 253.763 266.379 245.224 257.689C236.686 249 225.107 244.111 213.032 244.095H190.977C178.902 244.111 167.323 249 158.784 257.689C150.246 266.379 145.444 278.16 145.429 290.449V388.587H70.878C68.7667 388.587 66.7468 387.733 65.2539 386.214C63.761 384.694 62.9188 382.634 62.9188 380.485V162.546C62.9188 160.766 62.2268 159.058 60.9896 157.798C59.7523 156.539 58.0692 155.832 56.3194 155.832C54.5697 155.832 52.8937 156.539 51.6564 157.798C50.4192 159.058 49.7272 160.766 49.7272 162.546V380.485C49.7272 392.355 59.1998 402 70.8637 402H158.606V290.449C158.606 272.287 173.131 257.509 190.977 257.509H213.032C230.877 257.509 245.402 272.287 245.402 290.449V402H333.131C344.794 402 354.267 392.355 354.267 380.485V162.546C354.267 160.77 353.578 159.066 352.345 157.809C351.112 156.552 349.427 155.843 347.682 155.839Z" fill="black" stroke="black" stroke-width="3.99993" stroke-linecap="round" stroke-linejoin="round"/>
<path fill-rule="evenodd" clip-rule="evenodd" d="M395.4 215.028C394.533 215.029 393.674 214.855 392.873 214.516C392.072 214.178 391.341 213.681 390.73 213.054L201.996 20.9778L13.2624 213.054C12.025 214.314 10.3422 215.021 8.59227 215.021C6.84234 215.021 5.16665 214.314 3.92927 213.054C2.69189 211.795 2 210.087 2 208.306C2 206.525 2.69189 204.817 3.92927 203.558L201.996 2L400.063 203.573C400.987 204.511 401.616 205.707 401.872 207.009C402.127 208.312 402.001 209.662 401.501 210.889C401.002 212.116 400.152 213.164 399.067 213.901C397.981 214.638 396.705 215.03 395.4 215.028Z" fill="black"/>
<path d="M395.4 215.028C394.533 215.029 393.674 214.855 392.873 214.516C392.072 214.178 391.341 213.681 390.73 213.054L201.996 20.9778L13.2624 213.054C12.025 214.314 10.3422 215.021 8.59227 215.021C6.84234 215.021 5.16665 214.314 3.92927 213.054C2.69189 211.795 2 210.087 2 208.306C2 206.525 2.69189 204.817 3.92927 203.558L201.996 2L400.063 203.573C400.987 204.511 401.616 205.707 401.872 207.009C402.127 208.312 402.001 209.662 401.501 210.889C401.002 212.116 400.152 213.164 399.067 213.901C397.981 214.638 396.705 215.03 395.4 215.028Z" fill="black" stroke="black" stroke-width="3.99993" stroke-linecap="round" stroke-linejoin="round"/>
</svg>
