<svg width="436" height="402" viewBox="0 0 436 402" fill="none" xmlns="http://www.w3.org/2000/svg">
<path fill-rule="evenodd" clip-rule="evenodd" d="M421.898 69.0482H324.896C325.065 68.0675 325.2 67.0867 325.2 66.0721V18.3364C325.2 12.0292 321.923 6.39828 316.432 3.28692C313.781 1.75498 310.766 0.965457 307.705 1.00116C304.643 1.03686 301.648 1.89647 299.032 3.48984L219.414 51.2256C219.009 51.4623 218.654 51.7667 218.282 52.0372C217.894 51.7667 217.556 51.4792 217.15 51.2256L137.498 3.48984C134.882 1.89992 131.887 1.04234 128.826 1.00664C125.765 0.970949 122.751 1.75845 120.098 3.28692C117.427 4.78198 115.207 6.9671 113.667 9.61427C112.128 12.2614 111.327 15.2736 111.347 18.3364V66.0721C111.347 67.0867 111.466 68.0675 111.634 69.0313H14.6498C11.0295 69.0403 7.56023 70.485 5.00184 73.049C2.44346 75.613 1.00446 79.0873 1 82.7112L1 131.123C1.00446 134.747 2.44346 138.221 5.00184 140.785C7.56023 143.349 11.0295 144.794 14.6498 144.803H26.7961V381.385C26.7961 392.19 35.5807 401 46.3586 401H390.189C400.984 401 409.768 392.19 409.768 381.385V144.803H421.898C425.518 144.794 428.987 143.349 431.546 140.785C434.104 138.221 435.543 134.747 435.547 131.123V82.7112C435.538 79.0903 434.098 75.6202 431.54 73.0599C428.982 70.4995 425.515 69.0572 421.898 69.0482ZM226.779 63.5357L306.381 15.8C306.829 15.5236 307.345 15.3745 307.871 15.3685C308.398 15.3626 308.916 15.5 309.371 15.7662C309.832 16.0163 310.216 16.3881 310.481 16.8412C310.746 17.2943 310.882 17.8114 310.875 18.3364V66.0721C310.875 66.857 310.563 67.6097 310.009 68.1646C309.454 68.7196 308.702 69.0313 307.918 69.0313H228.3C227.67 69.0715 227.045 68.8909 226.534 68.5207C226.022 68.1505 225.655 67.6136 225.496 67.0022C225.529 66.3258 225.58 65.6325 225.529 64.9561C225.763 64.3532 226.216 63.8508 226.779 63.5357ZM267.746 130.464H168.802V83.3876H267.763V130.464H267.746ZM125.673 66.0721V18.3364C125.667 17.8097 125.805 17.2914 126.073 16.8381C126.341 16.3849 126.729 16.014 127.193 15.7662C127.636 15.5109 128.135 15.3713 128.646 15.3604C129.102 15.3604 129.609 15.4787 130.166 15.8L209.785 63.5357C210.348 63.852 210.784 64.354 211.018 64.9561C210.967 65.6325 211.018 66.3089 211.052 67.0022C210.892 67.6136 210.525 68.1505 210.014 68.5207C209.502 68.8909 208.878 69.0715 208.248 69.0313H128.629C127.846 69.0269 127.097 68.7137 126.544 68.1597C125.99 67.6057 125.677 66.8556 125.673 66.0721ZM15.3256 130.464V83.3876H154.476V130.464H15.3256ZM46.3586 386.644C44.9711 386.639 43.6416 386.086 42.6605 385.104C41.6793 384.121 41.1261 382.791 41.1217 381.402V144.803H185.053V386.661L46.3586 386.644ZM199.379 386.644V144.82H237.169V386.678H199.379V386.644ZM395.443 381.402C395.443 384.293 393.078 386.644 390.189 386.644H251.494V144.82H395.426V381.385L395.443 381.402ZM421.222 130.464H282.088V83.3876H421.222V130.464Z" fill="black"/>
<path d="M421.898 69.0482H324.896C325.065 68.0675 325.2 67.0867 325.2 66.0721V18.3364C325.2 12.0292 321.923 6.39828 316.432 3.28692C313.781 1.75498 310.766 0.965457 307.705 1.00116C304.643 1.03686 301.648 1.89647 299.032 3.48984L219.414 51.2256C219.009 51.4623 218.654 51.7667 218.282 52.0372C217.894 51.7667 217.556 51.4792 217.15 51.2256L137.498 3.48984C134.882 1.89992 131.887 1.04234 128.826 1.00664C125.765 0.970949 122.751 1.75845 120.098 3.28692C117.427 4.78198 115.207 6.9671 113.667 9.61427C112.128 12.2614 111.327 15.2736 111.347 18.3364V66.0721C111.347 67.0867 111.466 68.0675 111.634 69.0313H14.6498C11.0295 69.0403 7.56023 70.485 5.00184 73.049C2.44346 75.613 1.00446 79.0873 1 82.7112L1 131.123C1.00446 134.747 2.44346 138.221 5.00184 140.785C7.56023 143.349 11.0295 144.794 14.6498 144.803H26.7961V381.385C26.7961 392.19 35.5807 401 46.3586 401H390.189C400.984 401 409.768 392.19 409.768 381.385V144.803H421.898C425.518 144.794 428.987 143.349 431.546 140.785C434.104 138.221 435.543 134.747 435.547 131.123V82.7112C435.538 79.0903 434.098 75.6202 431.54 73.0599C428.982 70.4995 425.515 69.0572 421.898 69.0482ZM226.779 63.5357L306.381 15.8C306.829 15.5236 307.345 15.3745 307.871 15.3685C308.398 15.3626 308.916 15.5 309.371 15.7662C309.832 16.0163 310.216 16.3881 310.481 16.8412C310.746 17.2943 310.882 17.8114 310.875 18.3364V66.0721C310.875 66.857 310.563 67.6097 310.009 68.1646C309.454 68.7196 308.702 69.0313 307.918 69.0313H228.3C227.67 69.0715 227.045 68.8909 226.534 68.5207C226.022 68.1505 225.655 67.6136 225.496 67.0022C225.529 66.3258 225.58 65.6325 225.529 64.9561C225.763 64.3532 226.216 63.8508 226.779 63.5357ZM267.746 130.464H168.802V83.3876H267.763V130.464H267.746ZM125.673 66.0721V18.3364C125.667 17.8097 125.805 17.2914 126.073 16.8381C126.341 16.3849 126.729 16.014 127.193 15.7662C127.636 15.5109 128.135 15.3713 128.646 15.3604C129.102 15.3604 129.609 15.4787 130.166 15.8L209.785 63.5357C210.348 63.852 210.784 64.354 211.018 64.9561C210.967 65.6325 211.018 66.3089 211.052 67.0022C210.892 67.6136 210.525 68.1505 210.014 68.5207C209.502 68.8909 208.878 69.0715 208.248 69.0313H128.629C127.846 69.0269 127.097 68.7137 126.544 68.1597C125.99 67.6057 125.677 66.8556 125.673 66.0721ZM15.3256 130.464V83.3876H154.476V130.464H15.3256ZM46.3586 386.644C44.9711 386.639 43.6416 386.086 42.6605 385.104C41.6793 384.121 41.1261 382.791 41.1217 381.402V144.803H185.053V386.661L46.3586 386.644ZM199.379 386.644V144.82H237.169V386.678H199.379V386.644ZM395.443 381.402C395.443 384.293 393.078 386.644 390.189 386.644H251.494V144.82H395.426V381.385L395.443 381.402ZM421.222 130.464H282.088V83.3876H421.222V130.464Z" fill="black" stroke="black" stroke-width="0.800008" stroke-linecap="round" stroke-linejoin="round"/>
</svg>
