<svg width="329" height="303" viewBox="0 0 329 303" fill="none" xmlns="http://www.w3.org/2000/svg">
<path fill-rule="evenodd" clip-rule="evenodd" d="M318 52.4763H245.005C245.132 51.7382 245.234 51.0002 245.234 50.2367V14.3153C245.234 9.56899 242.768 5.33172 238.636 2.9904C236.641 1.8376 234.372 1.24348 232.069 1.27034C229.765 1.29721 227.511 1.94407 225.543 3.14309L165.629 39.0646C165.324 39.2427 165.057 39.4717 164.778 39.6753C164.485 39.4717 164.231 39.2554 163.926 39.0646L103.987 3.14309C102.018 1.94667 99.7643 1.30133 97.4611 1.27447C95.1579 1.24761 92.8897 1.84021 90.8934 2.9904C88.8837 4.11544 87.2125 5.75976 86.0542 7.75177C84.8959 9.74378 84.293 12.0105 84.3084 14.3153V50.2367C84.3084 51.0002 84.3973 51.7382 84.5245 52.4635H11.5428C8.81848 52.4703 6.20785 53.5574 4.28264 55.4868C2.35744 57.4163 1.27458 60.0308 1.27122 62.7577L1.27122 99.1882C1.27458 101.915 2.35744 104.53 4.28264 106.459C6.20785 108.388 8.81848 109.476 11.5428 109.482H20.683V287.512C20.683 295.643 27.2934 302.272 35.4039 302.272H294.139C302.262 302.272 308.872 295.643 308.872 287.512V109.482H318C320.724 109.476 323.335 108.388 325.26 106.459C327.185 104.53 328.268 101.915 328.271 99.1882V62.7577C328.265 60.033 327.18 57.4217 325.255 55.495C323.331 53.5684 320.722 52.483 318 52.4763ZM171.172 48.328L231.073 12.4066C231.41 12.1986 231.798 12.0864 232.194 12.0819C232.59 12.0774 232.981 12.1808 233.323 12.3811C233.67 12.5693 233.959 12.8491 234.158 13.1901C234.358 13.5311 234.46 13.9202 234.454 14.3153V50.2367C234.454 50.8273 234.22 51.3937 233.802 51.8113C233.385 52.2289 232.819 52.4635 232.229 52.4635H172.316C171.842 52.4937 171.372 52.3579 170.987 52.0793C170.602 51.8007 170.326 51.3967 170.206 50.9366C170.231 50.4276 170.269 49.9059 170.231 49.3969C170.407 48.9432 170.748 48.5652 171.172 48.328ZM201.999 98.6919H127.543V63.2667H202.012V98.6919H201.999ZM95.0884 50.2367V14.3153C95.0838 13.9189 95.1881 13.5289 95.3898 13.1878C95.5916 12.8467 95.8831 12.5676 96.2326 12.3811C96.5656 12.189 96.9416 12.084 97.3258 12.0757C97.6691 12.0757 98.0504 12.1648 98.4699 12.4066L158.383 48.328C158.807 48.566 159.135 48.9438 159.311 49.3969C159.273 49.9059 159.311 50.4149 159.337 50.9366C159.217 51.3967 158.94 51.8007 158.555 52.0793C158.17 52.3579 157.701 52.4937 157.226 52.4635H97.3131C96.7241 52.4602 96.1602 52.2245 95.7437 51.8076C95.3272 51.3907 95.0918 50.8263 95.0884 50.2367ZM12.0513 98.6919V63.2667H116.763V98.6919H12.0513ZM35.4039 291.469C34.3598 291.466 33.3594 291.049 32.621 290.31C31.8827 289.571 31.4664 288.57 31.4631 287.525V109.482H139.772V291.482L35.4039 291.469ZM150.552 291.469V109.495H178.99V291.495H150.552V291.469ZM298.092 287.525C298.092 289.7 296.312 291.469 294.139 291.469H189.77V109.495H298.079V287.512L298.092 287.525ZM317.491 98.6919H212.792V63.2667H317.491V98.6919Z" fill="black"/>
<path d="M318 52.4763H245.005C245.132 51.7382 245.234 51.0002 245.234 50.2367V14.3153C245.234 9.56899 242.768 5.33172 238.636 2.9904C236.641 1.8376 234.372 1.24348 232.069 1.27034C229.765 1.29721 227.511 1.94407 225.543 3.14309L165.629 39.0646C165.324 39.2427 165.057 39.4717 164.778 39.6753C164.485 39.4717 164.231 39.2554 163.926 39.0646L103.987 3.14309C102.018 1.94667 99.7643 1.30133 97.4611 1.27447C95.1579 1.24761 92.8897 1.84021 90.8934 2.9904C88.8837 4.11544 87.2125 5.75976 86.0542 7.75177C84.8959 9.74378 84.293 12.0105 84.3084 14.3153V50.2367C84.3084 51.0002 84.3973 51.7382 84.5245 52.4635H11.5428C8.81848 52.4703 6.20785 53.5574 4.28264 55.4868C2.35744 57.4163 1.27458 60.0308 1.27122 62.7577L1.27122 99.1882C1.27458 101.915 2.35744 104.53 4.28264 106.459C6.20785 108.388 8.81848 109.476 11.5428 109.482H20.683V287.512C20.683 295.643 27.2934 302.272 35.4039 302.272H294.139C302.262 302.272 308.872 295.643 308.872 287.512V109.482H318C320.724 109.476 323.335 108.388 325.26 106.459C327.185 104.53 328.268 101.915 328.271 99.1882V62.7577C328.265 60.033 327.18 57.4217 325.255 55.495C323.331 53.5684 320.722 52.483 318 52.4763ZM171.172 48.328L231.073 12.4066C231.41 12.1986 231.798 12.0864 232.194 12.0819C232.59 12.0774 232.981 12.1808 233.323 12.3811C233.67 12.5693 233.959 12.8491 234.158 13.1901C234.358 13.5311 234.46 13.9202 234.454 14.3153V50.2367C234.454 50.8273 234.22 51.3937 233.802 51.8113C233.385 52.2289 232.819 52.4635 232.229 52.4635H172.316C171.842 52.4937 171.372 52.3579 170.987 52.0793C170.602 51.8007 170.326 51.3967 170.206 50.9366C170.231 50.4276 170.269 49.9059 170.231 49.3969C170.407 48.9432 170.748 48.5652 171.172 48.328ZM201.999 98.6919H127.543V63.2667H202.012V98.6919H201.999ZM95.0884 50.2367V14.3153C95.0838 13.9189 95.1881 13.5289 95.3898 13.1878C95.5916 12.8467 95.8831 12.5676 96.2326 12.3811C96.5656 12.189 96.9416 12.084 97.3258 12.0757C97.6691 12.0757 98.0504 12.1648 98.4699 12.4066L158.383 48.328C158.807 48.566 159.135 48.9438 159.311 49.3969C159.273 49.9059 159.311 50.4149 159.337 50.9366C159.217 51.3967 158.94 51.8007 158.555 52.0793C158.17 52.3579 157.701 52.4937 157.226 52.4635H97.3131C96.7241 52.4602 96.1602 52.2245 95.7437 51.8076C95.3272 51.3907 95.0918 50.8263 95.0884 50.2367ZM12.0513 98.6919V63.2667H116.763V98.6919H12.0513ZM35.4039 291.469C34.3598 291.466 33.3594 291.049 32.621 290.31C31.8827 289.571 31.4664 288.57 31.4631 287.525V109.482H139.772V291.482L35.4039 291.469ZM150.552 291.469V109.495H178.99V291.495H150.552V291.469ZM298.092 287.525C298.092 289.7 296.312 291.469 294.139 291.469H189.77V109.495H298.079V287.512L298.092 287.525ZM317.491 98.6919H212.792V63.2667H317.491V98.6919Z" fill="black" stroke="black" stroke-width="0.800008" stroke-linecap="round" stroke-linejoin="round"/>
</svg>
